<?xml version="1.0" encoding="UTF-8" standalone="no"?>
<svg width="21px" height="20px" viewBox="0 0 21 20" version="1.1" xmlns="http://www.w3.org/2000/svg" xmlns:xlink="http://www.w3.org/1999/xlink" xmlns:sketch="http://www.bohemiancoding.com/sketch/ns">
    <!-- Generator: Sketch 3.4.4 (17249) - http://www.bohemiancoding.com/sketch -->
    <title>Shape</title>
    <desc>Created with Sketch.</desc>
    <defs></defs>
    <g id="Onboarding-B" stroke="none" stroke-width="1" fill="none" fill-rule="evenodd" sketch:type="MSPage">
        <g id="Start" sketch:type="MSArtboardGroup" transform="translate(-328.000000, -251.000000)" fill="#FFFFFF">
            <g id="Spotify-Card" sketch:type="MSLayerGroup" transform="translate(148.000000, 180.000000)">
                <g id="spotify-button-(material)" transform="translate(161.753927, 62.000000)" sketch:type="MSShapeGroup">
                    <g id="spotify_logo" transform="translate(19.000000, 9.000000)">
                        <path d="M9.81961434,0.0329761905 C4.41284088,0.0329761905 0.0295771516,4.49642857 0.0295771516,10.0022619 C0.0295771516,15.5086905 4.41284088,19.9719048 9.81961434,19.9719048 C15.2266216,19.9719048 19.6096515,15.5086905 19.6096515,10.0022619 C19.6096515,4.49678571 15.2268554,0.033452381 9.81949744,0.033452381 L9.81961434,0.0329761905 Z M14.3092623,14.4115476 C14.1334361,14.7052381 13.757701,14.7972619 13.4702298,14.6183333 C11.1712785,13.1875 8.27762766,12.8642857 4.86982541,13.6570238 C4.54143719,13.7336905 4.21410113,13.5240476 4.13928145,13.1897619 C4.06411107,12.8553571 4.26904682,12.5220238 4.59825338,12.4458333 C8.32754641,11.577619 11.5264381,11.9513095 14.1068985,13.5570238 C14.3944866,13.7367857 14.4856731,14.1189286 14.3091454,14.4117857 L14.3092623,14.4115476 Z M15.5075461,11.697381 C15.2861266,12.0632143 14.8163994,12.1779762 14.4576157,11.9533333 C11.826652,10.3064286 7.81479785,9.82940476 4.70218258,10.7915476 C4.29850707,10.9157143 3.87215184,10.6840476 3.74963463,10.2736905 C3.62805266,9.86261905 3.85566814,9.42928571 4.25864221,9.30428571 C7.81409641,8.20571429 12.2340685,8.73785714 15.2560819,10.6289286 C15.6149825,10.8539286 15.728381,11.3325 15.5074292,11.6975 L15.5075461,11.697381 Z M15.6104232,8.87071429 C12.4546697,6.9622619 7.2493248,6.78678571 4.23678084,7.71785714 C3.7530249,7.8672619 3.24144539,7.58916667 3.09484559,7.09654762 C2.9482458,6.60369048 3.22110379,6.08309524 3.70521045,5.93333333 C7.16339908,4.86428571 12.9122387,5.07083333 16.5449676,7.26690476 C16.9800908,7.52988095 17.1228327,8.10214286 16.8649386,8.54464286 C16.607746,8.9877381 16.0442603,9.13380952 15.6105401,8.87071429 L15.6104232,8.87071429 Z" id="Shape"></path>
                    </g>
                </g>
            </g>
        </g>
    </g>
</svg>